<svg width="37" height="33" viewBox="0 0 37 33" fill="none" xmlns="http://www.w3.org/2000/svg">
<g clip-path="url(#clip0_147_1284)">
<path d="M18.1659 18.0823C12.713 18.0823 9.43384 21.4205 9.43384 25.3611C9.43384 28.5347 11.9088 32.6399 18.1659 32.6399C23.6188 32.6399 26.898 29.3017 26.898 25.3611C26.898 22.1875 24.4231 18.0823 18.1659 18.0823ZM18.1659 29.7271C14.0017 29.7271 12.3435 27.3764 12.3435 25.3611C12.3435 23.1874 14.1446 20.995 18.1659 20.995C22.1873 20.995 23.9883 23.3457 23.9883 25.3611C23.9883 27.5348 22.1873 29.7271 18.1659 29.7271Z" fill="#080808"/>
<path d="M2.15503 29.7271L5.06468 32.6368V18.0823H2.15503V29.7271Z" fill="#080808"/>
<path d="M36.3599 18.0823H29.0842V20.9919H31.2672V32.6368L34.1769 29.7271V20.9919H36.3599V18.0823Z" fill="#080808"/>
<path d="M8.57983 14.5762L10.5641 16.8089C12.6602 15.7314 15.2376 15.1694 18.1659 15.1694C21.0941 15.1694 23.6777 15.7283 25.7645 16.8089L27.7488 14.5762C25.1279 13.0515 21.8705 12.2566 18.1659 12.2566C14.4613 12.2566 11.21 13.0515 8.57983 14.5731V14.5762Z" fill="#080808"/>
<path d="M30.0655 11.9742L32.0498 9.74463C28.252 7.57093 23.5351 6.4375 18.1691 6.4375C12.8032 6.4375 8.09559 7.56782 4.2854 9.74153L6.26968 11.9742C9.54887 10.2477 13.5857 9.35026 18.1691 9.35026C22.7526 9.35026 26.8019 10.2477 30.0686 11.9773L30.0655 11.9742Z" fill="#080808"/>
<path d="M34.3445 7.15782L36.3288 4.92512C31.3572 2.10552 25.1901 0.636719 18.1659 0.636719C11.1418 0.636719 4.98709 2.10552 0 4.92202L1.98428 7.15472C6.44037 4.78228 11.9336 3.54637 18.1659 3.54637C24.3983 3.54637 29.907 4.78228 34.3445 7.15782Z" fill="#080808"/>
</g>
<defs>
<clipPath id="clip0_147_1284">
<rect width="36.3598" height="32" fill="white" transform="translate(0 0.636719)"/>
</clipPath>
</defs>
</svg>
