<svg width="54" height="33" viewBox="0 0 54 33" fill="none" xmlns="http://www.w3.org/2000/svg">
<g clip-path="url(#clip0_147_1305)">
<path d="M9.55613 21.9688C12.006 21.9688 13.1134 23.3605 13.1134 24.6348C13.1134 26.0038 11.9074 27.3008 9.55613 27.3008C7.20487 27.3008 6.00269 25.909 6.00269 24.6348C6.00269 23.2657 7.20866 21.9688 9.55613 21.9688Z" fill="#080808"/>
<path d="M53.995 27.3009H20.2202V0.636719H53.995V27.3009ZM23.7737 23.7474H50.4378V4.19017H23.7775V23.7436L23.7737 23.7474Z" fill="#080808"/>
<path d="M18.4416 32.6367H0.666748V0.636719H18.4416V32.6367ZM4.2202 29.0833H14.8843V4.19017H4.2202V29.0795V29.0833Z" fill="#080808"/>
<path d="M48.6629 32.6368H25.5522L29.1095 29.0796H45.1095L48.6629 32.6368Z" fill="#080808"/>
<path d="M45.1095 14.8581V13.0794L43.054 12.0517C42.9554 11.718 42.8303 11.3994 42.6786 11.0884L43.3953 8.93817L42.1401 7.6829L40.0239 8.38828C39.7205 8.23659 39.383 8.10385 39.0152 8.00146L37.9988 5.96875H36.2202L35.2038 8.00525C34.8511 8.10385 34.5174 8.23279 34.1988 8.39207L32.0827 7.68669L30.8274 8.94197L31.5404 11.0847C31.3887 11.3956 31.2636 11.7218 31.165 12.0555L29.1133 13.0832V14.8619L31.1725 15.8896C31.2711 16.2195 31.3963 16.5419 31.5442 16.8491L30.8274 18.9993L32.0827 20.2546L34.1951 19.5492C34.5098 19.7047 34.8473 19.8336 35.2038 19.936L36.2202 21.9688H37.9988L39.0152 19.936C39.3716 19.8336 39.7092 19.7047 40.0239 19.5492L42.1363 20.2546L43.3915 18.9993L42.6748 16.8491C42.8265 16.5381 42.9478 16.2195 43.0464 15.8896L45.1057 14.8619L45.1095 14.8581ZM39.7774 13.9706C39.7774 14.4144 39.6485 16.6367 37.1114 16.6367C34.5743 16.6367 34.4453 14.4144 34.4453 13.9706C34.4453 11.4336 36.6677 11.3046 37.1114 11.3046C37.5551 11.3046 39.7774 11.4336 39.7774 13.9706Z" fill="#080808"/>
</g>
<defs>
<clipPath id="clip0_147_1305">
<rect width="53.3283" height="32" fill="white" transform="translate(0.666748 0.636719)"/>
</clipPath>
</defs>
</svg>
