<svg width="27" height="33" viewBox="0 0 27 33" fill="none" xmlns="http://www.w3.org/2000/svg">
<g clip-path="url(#clip0_147_1298)">
<path d="M19.5811 4.99121C21.5861 4.99121 22.4924 6.1303 22.4924 7.17317C22.4924 8.29364 21.5054 9.35513 19.5811 9.35513C17.5761 9.35513 16.6729 8.21604 16.6729 7.17317C16.6729 6.0527 17.6599 4.99121 19.5811 4.99121Z" fill="#080808"/>
<path d="M19.5811 14.4548C21.5861 14.4548 22.4924 15.5939 22.4924 16.6368C22.4924 17.7573 21.5054 18.8188 19.5811 18.8188C17.5761 18.8188 16.6729 17.6797 16.6729 16.6368C16.6729 15.5163 17.6599 14.4548 19.5811 14.4548Z" fill="#080808"/>
<path d="M19.5811 23.915C21.5861 23.915 22.4924 25.0541 22.4924 26.097C22.4924 27.2175 21.5054 28.279 19.5811 28.279C17.5761 28.279 16.6729 27.1399 16.6729 26.097C16.6729 24.9765 17.6599 23.915 19.5811 23.915Z" fill="#080808"/>
<path d="M0.666748 0.636719V32.6367H26.8534V0.636719H0.666748ZM23.9451 29.7254H3.57499V22.9374H23.942V29.7254H23.9451ZM23.9451 20.0292H3.57499V13.2412H23.942V20.0292H23.9451ZM3.57499 10.3329V3.54496H23.942V10.3329H3.57499Z" fill="#080808"/>
</g>
<defs>
<clipPath id="clip0_147_1298">
<rect width="26.1866" height="32" fill="white" transform="translate(0.666748 0.636719)"/>
</clipPath>
</defs>
</svg>
