<svg width="54" height="33" viewBox="0 0 54 33" fill="none" xmlns="http://www.w3.org/2000/svg">
<g clip-path="url(#clip0_147_1277)">
<path d="M8.88939 21.9688C11.3393 21.9688 12.4466 23.3605 12.4466 24.6348C12.4466 26.0038 11.2407 27.3008 8.88939 27.3008C6.53812 27.3008 5.33594 25.909 5.33594 24.6348C5.33594 23.2657 6.54191 21.9688 8.88939 21.9688Z" fill="#080808"/>
<path d="M53.3283 27.3009H19.5535V0.636719H53.3283V27.3009ZM23.1069 23.7474H49.7711V4.19017H23.1107V23.7436L23.1069 23.7474Z" fill="#080808"/>
<path d="M17.7748 32.6367H0V0.636719H17.7748V32.6367ZM3.55345 29.0833H14.2176V4.19017H3.55345V29.0795V29.0833Z" fill="#080808"/>
<path d="M47.9962 32.6367H24.8855L28.4427 29.0795H44.4427L47.9962 32.6367Z" fill="#080808"/>
</g>
<defs>
<clipPath id="clip0_147_1277">
<rect width="53.3283" height="32" fill="white" transform="translate(0 0.636719)"/>
</clipPath>
</defs>
</svg>
