<svg width="18" height="19" viewBox="0 0 18 19" fill="none" xmlns="http://www.w3.org/2000/svg">
<path fill-rule="evenodd" clip-rule="evenodd" d="M17.9999 5.29655V5.63655C18.0007 6.70263 17.576 7.72497 16.8199 8.47647L13.9999 11.3065C13.4738 11.8276 12.6261 11.8276 12.1 11.3065L12 11.1965C11.8094 11.0021 11.8094 10.6909 12 10.4965L15.4399 7.05653C15.807 6.67585 16.0083 6.1653 15.9999 5.63655V5.29655C16.0003 4.76352 15.788 4.25236 15.4099 3.87657L14.7599 3.22658C14.3841 2.84854 13.873 2.63616 13.3399 2.63658H12.9999C12.4669 2.63616 11.9558 2.84854 11.58 3.22658L8.14 6.63654C7.9456 6.82711 7.6344 6.82711 7.44 6.63654L7.33 6.52654C6.8089 6.00041 6.8089 5.1527 7.33 4.62656L10.16 1.78659C10.9165 1.04152 11.9382 0.627802 12.9999 0.636612H13.3399C14.4011 0.635772 15.4191 1.05665 16.1699 1.80659L16.8299 2.46659C17.5798 3.21737 18.0007 4.23538 17.9999 5.29655ZM5.64993 11.5765L10.9399 6.28655C11.0338 6.1919 11.1616 6.13865 11.2949 6.13865C11.4282 6.13865 11.556 6.1919 11.6499 6.28655L12.3499 6.98654C12.4445 7.08042 12.4978 7.20822 12.4978 7.34154C12.4978 7.47486 12.4445 7.60265 12.3499 7.69657L7.0599 12.9865C6.96604 13.0812 6.83824 13.1344 6.70492 13.1344C6.57161 13.1344 6.44381 13.0812 6.34993 12.9865L5.64993 12.2865C5.55528 12.1926 5.50204 12.0648 5.50204 11.9315C5.50204 11.7982 5.55528 11.6704 5.64993 11.5765ZM10.5599 12.6365C10.3655 12.4459 10.0543 12.4459 9.8599 12.6365L6.42993 16.0465C6.0517 16.427 5.53645 16.6395 4.99995 16.6364H4.65995C4.12691 16.6369 3.61576 16.4245 3.23997 16.0465L2.58997 15.3965C2.21194 15.0207 1.99956 14.5095 1.99998 13.9765V13.6365C1.99956 13.1034 2.21194 12.5923 2.58997 12.2165L6.00993 8.77647C6.2005 8.58207 6.2005 8.27097 6.00993 8.07647L5.89993 7.96647C5.3738 7.44541 4.52609 7.44541 3.99996 7.96647L1.17999 10.7965C0.423921 11.5481 -0.000838757 12.5704 1.24351e-06 13.6365V13.9865C0.00182124 15.0442 0.422491 16.0581 1.16999 16.8064L1.82998 17.4664C2.58076 18.2164 3.59878 18.6373 4.65995 18.6364H4.99995C6.05338 18.6426 7.0667 18.2329 7.8199 17.4964L10.6699 14.6465C11.191 14.1203 11.191 13.2726 10.6699 12.7465L10.5599 12.6365Z" fill="#080808"/>
</svg>
