<svg width="20" height="20" viewBox="0 0 20 20" fill="none" xmlns="http://www.w3.org/2000/svg">
<path d="M10.8567 1.66675C11.7942 1.66925 12.2701 1.67425 12.6809 1.68591L12.8426 1.69175C13.0292 1.69841 13.2134 1.70675 13.4359 1.71675C14.3226 1.75841 14.9276 1.89841 15.4584 2.10425C16.0084 2.31591 16.4717 2.60258 16.9351 3.06508C17.3588 3.48166 17.6867 3.98557 17.8959 4.54175C18.1017 5.07258 18.2417 5.67758 18.2834 6.56508C18.2934 6.78675 18.3017 6.97092 18.3084 7.15842L18.3134 7.32008C18.3259 7.73008 18.3309 8.20591 18.3326 9.14341L18.3334 9.76508V10.8567C18.3355 11.4646 18.3291 12.0724 18.3142 12.6801L18.3092 12.8417C18.3026 13.0292 18.2942 13.2134 18.2842 13.4351C18.2426 14.3226 18.1009 14.9267 17.8959 15.4584C17.6873 16.0149 17.3593 16.5189 16.9351 16.9351C16.5184 17.3587 16.0145 17.6865 15.4584 17.8959C14.9276 18.1017 14.3226 18.2417 13.4359 18.2834C13.2382 18.2927 13.0404 18.3011 12.8426 18.3084L12.6809 18.3134C12.2701 18.3251 11.7942 18.3309 10.8567 18.3326L10.2351 18.3334H9.14424C8.53613 18.3355 7.92801 18.3291 7.32007 18.3142L7.15841 18.3092C6.96058 18.3018 6.7628 18.2931 6.56507 18.2834C5.67841 18.2417 5.07341 18.1017 4.54174 17.8959C3.98563 17.6871 3.48192 17.3591 3.06591 16.9351C2.64178 16.5187 2.31359 16.0147 2.10424 15.4584C1.89841 14.9276 1.75841 14.3226 1.71674 13.4351C1.70746 13.2373 1.69912 13.0396 1.69174 12.8417L1.68757 12.6801C1.67222 12.0724 1.66527 11.4646 1.66674 10.8567V9.14341C1.66441 8.53558 1.67053 7.92775 1.68507 7.32008L1.69091 7.15842C1.69757 6.97092 1.70591 6.78675 1.71591 6.56508C1.75757 5.67758 1.89757 5.07341 2.10341 4.54175C2.31267 3.985 2.64151 3.48093 3.06674 3.06508C3.48265 2.64131 3.98603 2.3134 4.54174 2.10425C5.07341 1.89841 5.67757 1.75841 6.56507 1.71675C6.78674 1.70675 6.97174 1.69841 7.15841 1.69175L7.32007 1.68675C7.92773 1.67194 8.53557 1.66555 9.14341 1.66758L10.8567 1.66675ZM10.0001 5.83342C8.89501 5.83342 7.8352 6.2724 7.0538 7.0538C6.27239 7.83521 5.83341 8.89501 5.83341 10.0001C5.83341 11.1052 6.27239 12.165 7.0538 12.9464C7.8352 13.7278 8.89501 14.1667 10.0001 14.1667C11.1051 14.1667 12.165 13.7278 12.9464 12.9464C13.7278 12.165 14.1667 11.1052 14.1667 10.0001C14.1667 8.89501 13.7278 7.83521 12.9464 7.0538C12.165 6.2724 11.1051 5.83342 10.0001 5.83342ZM10.0001 7.50008C10.3284 7.50003 10.6535 7.56464 10.9568 7.69022C11.2601 7.81581 11.5358 7.99991 11.768 8.23202C12.0001 8.46413 12.1843 8.7397 12.31 9.04299C12.4357 9.34628 12.5004 9.67136 12.5005 9.99967C12.5005 10.328 12.4359 10.6531 12.3103 10.9564C12.1848 11.2597 12.0007 11.5354 11.7686 11.7676C11.5364 11.9997 11.2609 12.1839 10.9576 12.3096C10.6543 12.4353 10.3292 12.5 10.0009 12.5001C9.33787 12.5001 8.70198 12.2367 8.23314 11.7678C7.7643 11.299 7.50091 10.6631 7.50091 10.0001C7.50091 9.33704 7.7643 8.70116 8.23314 8.23231C8.70198 7.76347 9.33787 7.50008 10.0009 7.50008M14.3759 4.58341C14.0996 4.58341 13.8347 4.69316 13.6393 4.88851C13.444 5.08386 13.3342 5.34881 13.3342 5.62508C13.3342 5.90135 13.444 6.1663 13.6393 6.36165C13.8347 6.557 14.0996 6.66675 14.3759 6.66675C14.6522 6.66675 14.9171 6.557 15.1125 6.36165C15.3078 6.1663 15.4176 5.90135 15.4176 5.62508C15.4176 5.34881 15.3078 5.08386 15.1125 4.88851C14.9171 4.69316 14.6522 4.58341 14.3759 4.58341Z" fill="#FEFEFE"/>
</svg>
