<svg width="426" height="66" viewBox="0 0 426 66" fill="none" xmlns="http://www.w3.org/2000/svg">
<path d="M25.1 53.2H77.7V62.8H0.299988L52.9 14.5H0.299988V4.90002H77.7L25.1 53.2Z" fill="white"/>
<path d="M155 2.40002C128.4 2.40002 113.9 16.9 113.9 33.8C113.9 50.7 128.4 65.2 155 65.2C181.6 65.2 196.1 50.7 196.1 33.8C196 16.9 181.5 2.40002 155 2.40002ZM155 55.6C134.7 55.6 123.6 45.6 123.6 33.9C123.6 22.2 134.7 12.2 155 12.2C175.3 12.2 186.4 22.2 186.4 33.9C186.4 45.6 175.3 55.6 155 55.6Z" fill="white"/>
<path d="M270.9 0L232.2 62.8H243.5L249.4 53.1H292.1L298 62.8H309.3L270.9 0ZM255.5 43.5L270.9 18.5L286.3 43.5H255.5Z" fill="white"/>
<path d="M425.5 4.90002V62.8L357.9 22V62.8H348.2V4.90002L415.9 45.7V4.90002H425.5Z" fill="white"/>
</svg>
