<svg width="2186" height="2048" viewBox="0 0 2186 2048" fill="none" xmlns="http://www.w3.org/2000/svg">
<g clip-path="url(#clip0_64_946)">
<path d="M1639.02 2048L2084.3 1638.4H2185.19L1739.9 2048H1639.02Z" fill="#FEFEFE"/>
<path d="M1639.02 1228.8L2084.3 819.199H2185.19L1739.9 1228.8H1639.02Z" fill="#FEFEFE"/>
<path d="M546.67 2048L991.96 1638.4H1092.84L647.56 2048H546.67Z" fill="#FEFEFE"/>
<path d="M0.5 2048L445.79 1638.4H546.67L101.39 2048H0.5Z" fill="#FEFEFE"/>
<path d="M1639.02 1638.4L2084.3 1228.8H2185.19L1739.9 1638.4H1639.02Z" fill="#FEFEFE"/>
<path d="M1092.84 1638.4L1538.13 1228.8H1639.02L1193.73 1638.4H1092.84Z" fill="#FEFEFE"/>
<path d="M1092.84 1228.8L1538.13 819.199H1639.02L1193.73 1228.8H1092.84Z" fill="#FEFEFE"/>
<path d="M1639.02 819.2L2084.3 409.6H2185.19L1739.9 819.2H1639.02Z" fill="#FEFEFE"/>
<path d="M1639.02 409.6L2084.3 0H2185.19L1739.9 409.6H1639.02Z" fill="#FEFEFE"/>
</g>
<defs>
<clipPath id="clip0_64_946">
<rect width="2184.69" height="2048" fill="white" transform="translate(0.5)"/>
</clipPath>
</defs>
</svg>
