<svg width="2732" height="2048" viewBox="0 0 2732 2048" fill="none" xmlns="http://www.w3.org/2000/svg">
<g clip-path="url(#clip0_64_850)">
<path d="M546.67 0L101.39 409.6H0.5L445.79 0H546.67Z" fill="#FEFEFE"/>
<path d="M1092.84 0L647.56 409.6H546.67L991.96 0H1092.84Z" fill="#FEFEFE"/>
<path d="M1639.02 0L1193.73 409.6H1092.84L1538.13 0H1639.02Z" fill="#FEFEFE"/>
<path d="M2185.19 0L1739.9 409.6H1639.02L2084.3 0H2185.19Z" fill="#FEFEFE"/>
<path d="M2731.36 0L2286.08 409.6H2185.19L2630.48 0H2731.36Z" fill="#FEFEFE"/>
<path d="M546.67 409.6L101.39 819.2H0.5L445.79 409.6H546.67Z" fill="#FEFEFE"/>
<path d="M1092.84 409.6L647.56 819.2H546.67L991.96 409.6H1092.84Z" fill="#FEFEFE"/>
<path d="M2185.19 409.6L1739.9 819.2H1639.02L2084.3 409.6H2185.19Z" fill="#FEFEFE"/>
<path d="M1092.84 819.2L647.56 1228.8H546.67L991.96 819.2H1092.84Z" fill="#FEFEFE"/>
<path d="M1639.02 819.2L1193.73 1228.8H1092.84L1538.13 819.2H1639.02Z" fill="#FEFEFE"/>
<path d="M546.67 1228.8L101.39 1638.4H0.5L445.79 1228.8H546.67Z" fill="#FEFEFE"/>
<path d="M546.67 1638.4L101.39 2048H0.5L445.79 1638.4H546.67Z" fill="#FEFEFE"/>
</g>
<defs>
<clipPath id="clip0_64_850">
<rect width="2730.86" height="2048" fill="white" transform="translate(0.5)"/>
</clipPath>
</defs>
</svg>
